<?xml version="1.0" encoding="UTF-8" standalone="no"?>
<svg width="700" height="500" xmlns="http://www.w3.org/2000/svg">
  <defs>
    <style>
      .layer { fill: #e1f5fe; stroke: #0277bd; stroke-width: 2; }
      .title { font-family: Arial, sans-serif; font-size: 14px; font-weight: bold; fill: #01579b; }
      .text { font-family: Arial, sans-serif; font-size: 11px; fill: #424242; }
      .arrow { stroke: #424242; stroke-width: 2; fill: none; marker-end: url(#arrowhead); }
      .operation { fill: #fff9c4; stroke: #f57f17; stroke-width: 2; }
    </style>
    <marker id="arrowhead" markerWidth="10" markerHeight="10" refX="9" refY="3" orient="auto">
      <polygon points="0 0, 10 3, 0 6" fill="#424242" />
    </marker>
  </defs>

  <!-- Title -->
  <text x="350" y="25" text-anchor="middle" class="title" font-size="16">GNN Layer Architecture</text>

  <!-- Input Features -->
  <rect x="250" y="60" width="200" height="50" class="layer" rx="5"/>
  <text x="350" y="80" text-anchor="middle" class="title">Input Features</text>
  <text x="350" y="100" text-anchor="middle" class="text">h⁰ ∈ ℝⁿˣ⁵¹² (n papers)</text>

  <!-- Layer 1 -->
  <rect x="250" y="160" width="200" height="70" class="layer" rx="5"/>
  <text x="350" y="180" text-anchor="middle" class="title">GNN Layer 1</text>
  <text x="350" y="200" text-anchor="middle" class="text">GCN/GAT/SAGE Conv</text>
  <text x="350" y="215" text-anchor="middle" class="text">512 → 256 dim</text>

  <!-- Operations after Layer 1 -->
  <rect x="530" y="160" width="120" height="70" class="operation" rx="5"/>
  <text x="590" y="180" text-anchor="middle" class="title" font-size="12">Operations</text>
  <text x="590" y="198" text-anchor="middle" class="text">BatchNorm</text>
  <text x="590" y="213" text-anchor="middle" class="text">ReLU</text>
  <text x="590" y="228" text-anchor="middle" class="text">Dropout(0.3)</text>

  <!-- Arrow from Input to Layer 1 -->
  <path d="M 350 110 L 350 160" class="arrow"/>

  <!-- Layer 2 -->
  <rect x="250" y="280" width="200" height="70" class="layer" rx="5"/>
  <text x="350" y="300" text-anchor="middle" class="title">GNN Layer 2</text>
  <text x="350" y="320" text-anchor="middle" class="text">GCN/GAT/SAGE Conv</text>
  <text x="350" y="335" text-anchor="middle" class="text">256 → 256 dim</text>

  <!-- Operations after Layer 2 -->
  <rect x="530" y="280" width="120" height="70" class="operation" rx="5"/>
  <text x="590" y="300" text-anchor="middle" class="title" font-size="12">Operations</text>
  <text x="590" y="318" text-anchor="middle" class="text">BatchNorm</text>
  <text x="590" y="333" text-anchor="middle" class="text">ReLU</text>
  <text x="590" y="348" text-anchor="middle" class="text">Dropout(0.3)</text>

  <!-- Arrow from Layer 1 to Layer 2 -->
  <path d="M 350 230 L 350 280" class="arrow"/>

  <!-- Layer 3 (Output) -->
  <rect x="250" y="400" width="200" height="70" class="layer" rx="5"/>
  <text x="350" y="420" text-anchor="middle" class="title">GNN Layer 3</text>
  <text x="350" y="440" text-anchor="middle" class="text">GCN/GAT/SAGE Conv</text>
  <text x="350" y="455" text-anchor="middle" class="text">256 → 128 dim</text>

  <!-- Operations after Layer 3 -->
  <rect x="530" y="415" width="120" height="40" class="operation" rx="5"/>
  <text x="590" y="438" text-anchor="middle" class="text">L2 Normalize</text>

  <!-- Arrow from Layer 2 to Layer 3 -->
  <path d="M 350 350 L 350 400" class="arrow"/>

  <!-- Annotations on left side -->
  <text x="50" y="195" class="text" font-style="italic">Hidden</text>
  <text x="50" y="210" class="text" font-style="italic">Dimension:</text>
  <text x="50" y="225" class="text" font-style="italic">256</text>

  <text x="50" y="315" class="text" font-style="italic">Hidden</text>
  <text x="50" y="330" class="text" font-style="italic">Dimension:</text>
  <text x="50" y="345" class="text" font-style="italic">256</text>

  <text x="50" y="435" class="text" font-style="italic">Output</text>
  <text x="50" y="450" class="text" font-style="italic">Dimension:</text>
  <text x="50" y="465" class="text" font-style="italic">128</text>

  <!-- GNN Type Options -->
  <rect x="50" y="60" width="150" height="90" style="fill: #f3e5f5; stroke: #7b1fa2; stroke-width: 2;" rx="5"/>
  <text x="125" y="80" text-anchor="middle" class="title" font-size="12">GNN Types:</text>
  <text x="125" y="100" text-anchor="middle" class="text">• GCN (Spectral)</text>
  <text x="125" y="115" text-anchor="middle" class="text">• GAT (Attention)</text>
  <text x="125" y="130" text-anchor="middle" class="text">• SAGE (Sampling)</text>

</svg>